<svg height="384pt" preserveAspectRatio="xMidYMid meet" viewBox="0 0 384 384" width="384pt" xmlns="http://www.w3.org/2000/svg"><path d="m1710 3729c-14-10-30-23-37-29-7-5-19-10-28-10-8 0-15-4-15-10 0-5-9-10-20-10s-20-4-20-10c0-5-11-10-25-10s-25-4-25-10c0-5-9-10-20-10s-20-4-20-10c0-5-8-10-18-10s-24-9-32-20-21-20-28-20c-14 0-122-108-122-122 0-4-6-13-12-20-19-20-58-94-58-110 0-7-8-19-17-26-10-6-42-28-72-48-58-39-181-157-181-174 0-5-4-10-10-10-5 0-10-7-10-15s-4-15-8-15c-5 0-14-16-22-35s-17-35-22-35c-4 0-8-26-8-57 0-57 0-58-57-110-31-29-60-53-64-53-3 0-24-16-45-35s-44-35-51-35-13-4-13-10c0-5-7-10-15-10s-15-4-15-10c0-5-7-10-15-10s-15-4-15-10c0-5-7-10-15-10s-15-4-15-8c0-5-12-15-28-23-15-8-37-23-48-34-12-11-38-34-58-52-44-40-56-78-30-98 24-18 60-19 68-2 5 10 7 10 12 0 3-7 14-13 25-13 10 0 19-4 19-10 0-17 64-10 90 10 30 24 40 25 40 5 0-22-38-57-85-79-50-24-65-39-65-65 0-12-4-21-10-21-5 0-10 5-10 10 0 6-4 10-10 10-13 0-13-127 0-135 5-3 10-24 10-46 0-21 3-39 8-39 4 0 12-10 17-21 18-38 30-25 33 34 2 31 6 57 9 57s14-9 23-20c17-19 17-24 2-73-9-29-20-53-24-55-5-2-8-34-8-70 0-96 42-202 79-202 6 0 11-4 11-10 0-5 8-10 18-10s23-5 29-11c11-11 46-9 136 7 20 3 37 9 37 13 0 3 15 12 33 20 17 8 34 17 37 20 5 7 91 48 125 61 11 4 31 12 45 17 14 6 78 19 143 29 64 10 117 22 117 26s8 8 18 8 28 9 40 20 26 20 33 20c6 0 24 14 40 31s29 26 29 20c0-15-60-71-76-71-8 0-14-4-14-9 0-10-87-49-128-57-32-7-82-45-82-63 0-6-4-11-10-11-5 0-10-7-10-15s-4-15-10-15c-5 0-10-9-10-20s-4-20-10-20c-5 0-10-9-10-20s-4-20-8-20-14-21-21-47c-7-27-17-59-21-73-22-64-40-225-40-357 0-134 20-335 40-393 4-14 13-52 20-85 6-33 16-68 21-77 5-10 9-27 9-37 0-11 5-23 10-26 6-3 10 5 10 19s4 28 10 31c5 3 10 24 10 46 0 38 3 46 28 96 7 13 12 28 12 34 0 15 59 99 70 99 6 0 10-4 10-9 0-8 71-166 101-223 5-10 9-29 9-43s5-25 10-25c6 0 10-18 10-40s5-40 10-40c6 0 10-27 10-61 0-37 4-58 10-54 6 3 10 18 10 32 0 15 4 40 9 57s14 49 20 71c20 82 78 281 88 305 4 8 10-14 14-50 14-128 22-170 30-176 5-3 9-18 9-35 0-16 4-29 8-29 5 0 15-23 22-50 7-28 17-50 22-50 4 0 8-9 8-19 0-11 3-21 8-23 4-2 18-25 32-53 14-27 28-54 33-60 4-5 28-41 54-80 87-129 83-131 83 38 0 91 4 147 10 147s10 28 10 65 4 65 10 65 10 18 10 39c0 22 5 43 10 46 6 3 10 17 10 31 0 23 3 33 28 81 7 13 12 27 12 33 0 15 73 164 82 168 4 2 8 9 8 16s12 26 28 43c15 16 32 38 38 48 17 30 34 30 34 0 0-43 77-253 100-275 3-3 12-25 20-50 7-25 17-49 22-54 4-6 8-36 8-68s4-58 10-58 10 14 10 30c0 17 5 30 10 30 6 0 10 18 10 39 0 22 5 43 10 46 6 3 10 19 10 36 0 16 5 29 10 29 6 0 10 14 10 30 0 17 5 30 10 30 6 0 10 10 10 23 0 18 2 19 10 7 5-8 10-31 10-50 0-20 14-81 31-135 30-92 33-98 40-70 5 17 12 65 15 108 4 42 11 77 15 77 5 0 9 15 9 34s5 38 10 41c6 3 10 17 10 31 0 13 5 24 10 24 6 0 10 14 10 30 0 17 5 30 10 30 6 0 10 18 10 40s5 40 10 40c6 0 10 26 10 57 0 85 18 53 23-42 6-90 19-168 35-205 6-14 11-23 12-20 0 3 7 39 15 80s20 95 26 120c19 82 31 154 35 230 6 99 11 111 29 76 8-16 15-37 15-47 0-11 5-19 10-19 6 0 10-9 10-20s5-20 10-20c6 0 10 9 10 20s5 20 10 20c6 0 10 14 10 31s4 28 10 24c6-3 10-22 10-41s4-34 9-34 11-12 14-27c7-33 24-60 31-52 5 5 19 85 33 187 7 50 20 62 32 30 8-18 10-7 10 45 1 37 5 67 11 67s10 9 10 19c0 11 5 23 10 26 6 3 10 19 10 36 0 16 4 29 9 29s11 8 14 17c3 16 5 16 11-2 13-36 69-139 81-152 10-10 12 13 9 115-2 70-1 121 2 115 3-7 14-13 25-13 10 0 19-4 19-9s9-11 20-14c25-6 26 10 2 32-26 24-69 110-77 156-8 45-31 120-47 152-21 41 3 39 42-5 21-23 41-42 44-42 4 0 21-14 39-31 25-24 33-28 35-15 2 9-3 23-12 31-8 8-18 25-21 36-10 30-75 140-97 163-10 11-18 26-18 33s-4 13-10 13c-5 0-10 5-10 10 0 6 7 10 15 10s15-4 15-10c0-5 7-10 15-10s15-4 15-10c0-5 7-10 15-10s15 2 15 4-7 20-15 39c-22 54-18 63 14 28 16-17 36-31 45-31s16-4 16-10c0-5 9-10 19-10 11 0 21-6 24-12 2-8 8-9 13-4s4 11-3 13c-7 3-13 13-13 24 0 10-4 19-9 19s-11 8-15 18c-15 46-90 156-137 202-42 41-63 58-115 94l-39 27 57-7c58-7 128 1 128 15 0 4-22 14-50 21-27 7-50 17-50 21s-8 9-17 12c-43 14-92 51-93 70 0 9 83 4 153-8 24-5 37-3 37 4 0 6-7 11-15 11s-15 5-15 10c0 6-5 10-10 10-6 0-26 15-44 33-62 60-107 97-116 97-6 0-10 5-10 10 0 6-9 10-20 10s-20 5-20 10c0 6 33 10 80 10s80 4 80 10-11 10-25 10-25 5-25 10c0 6-7 10-15 10s-23 4-33 9c-49 25-132 51-162 51-33 0-20 10 42 31 30 10 43 18 31 18-12 1-25 6-28 11-3 6-15 10-26 10-37 0-19 18 24 24 81 10 117 18 123 27 3 5-6 9-20 9s-26 5-26 10c0 6-9 10-19 10-11 0-23 5-26 10-3 6-17 10-31 10-13 0-24 5-24 10 0 6-10 10-23 10s-27 4-32 9c-6 5-19 11-30 14-18 4-18 5 5 14l25 11-30 7c-34 8-158 74-163 87-2 4-12 8-22 8s-22 5-25 10c-3 6 3 10 14 10s23 5 26 10c3 6 22 10 41 10s34 5 34 10c0 6 11 10 25 10s25 5 25 10c0 6 9 10 21 10 11 0 17 5 14 10-3 6-42 10-85 10s-82 5-85 10c-3 6-19 10-36 10-37 0-37 16 2 58 36 39 31 39-49 7-47-19-80-25-136-25-41 0-98-5-125-11-85-18-93-8-26 33 76 47 145 108 122 108-9 0-17-4-17-10 0-5-13-10-29-10-17 0-33-4-36-10-3-5-22-10-41-10s-34-4-34-10c0-5-13-10-30-10-16 0-30-4-30-10 0-5-7-10-15-10-9 0-33-9-55-20-21-11-41-16-44-12-2 4 13 27 35 50 27 28 35 42 25 42-9 0-16-4-16-10 0-5-16-10-35-10-40 0-45 11-12 29 12 6 31 25 42 41 11 17 23 30 28 30 4 0 7 5 7 10 0 6-9 10-20 10s-20-4-20-10c0-5-16-10-35-10s-35-4-35-10c0-5-13-10-30-10-16 0-30-4-30-10 0-14-43-13-58 2-8 8-15 8-24 1-7-6-35-14-63-17-27-3-71-8-97-12-27-3-48-3-48 1s14 20 30 35c17 15 30 31 30 35s10 20 21 37c26 37 13 54-21 27zm-444-904c17-4 44-17 60-30l29-23-45-21c-25-11-62-21-83-21-42 0-117-21-117-32 0-5-7-8-15-8-21 0-20 3 23 47 20 22 45 50 54 61 17 21 17 22 0 22-9 0-24 5-32 11-16 11 66 7 126-6zm-623-814c15-8 27-18 27-23 0-4 9-8 20-8s20-4 20-10c0-5 9-10 20-10s20-4 20-10c0-5 11-10 25-10s25-4 25-10c0-5 23-10 50-10 30 0 50-4 50-11s13-9 38-5c20 4 58 10 85 12 26 3 47 10 47 15 0 14 30 10 46-6 22-21 1-40-56-50-81-15-233-5-246 16-3 5-14 9-25 9-10 0-19 5-19 10 0 6-9 10-20 10s-20 5-20 10c0 6-8 10-18 10s-24 9-32 20-18 20-23 20c-4 0-20 12-34 26-15 15-23 25-17 23 5-3 21-11 37-18z" transform="matrix(.1 0 0 -.1 0 384)"/></svg>